<mxfile host="app.diagrams.net" modified="2023-12-20T17:00:49.965Z" agent="Mozilla/5.0 (Windows NT 10.0; Win64; x64) AppleWebKit/537.36 (KHTML, like Gecko) Chrome/120.0.0.0 Safari/537.36 Edg/120.0.0.0" version="21.2.2" etag="Jm2UeGPFw0ZbqXd9RVuL" type="github">
  <diagram name="Page-1" id="GF6K52MuhYsjHx-uQQxf">
    <mxGraphModel>
      <root>
        <mxCell id="0" />
        <mxCell id="1" parent="0" />
      </root>
    </mxGraphModel>
  </diagram>
</mxfile>
